<?xml version="1.0" encoding="UTF-8" standalone="no"?>
<!DOCTYPE svg PUBLIC "-//W3C//DTD SVG 1.1//EN" "http://www.w3.org/Graphics/SVG/1.1/DTD/svg11.dtd">
<!-- 由 Microsoft Visio, SVG Export 生成 all.svg Page-1 -->
<svg xmlns="http://www.w3.org/2000/svg" xmlns:xlink="http://www.w3.org/1999/xlink" xmlns:ev="http://www.w3.org/2001/xml-events"
		xmlns:v="http://schemas.microsoft.com/visio/2003/SVGExtensions/" width="14.6093in" height="11.215in"
		viewBox="0 0 1051.87 807.477" xml:space="preserve" color-interpolation-filters="sRGB" class="st23">
	<v:documentProperties v:langID="2052" v:metric="true" v:viewMarkup="false">
		<v:userDefs>
			<v:ud v:nameU="msvNoAutoConnect" v:val="VT0(1):26"/>
		</v:userDefs>
	</v:documentProperties>

	<style type="text/css">
	<![CDATA[
		.st1 {fill:#ebf1df;stroke:#000000;stroke-linecap:round;stroke-linejoin:round;stroke-width:0.25}
		.st2 {marker-end:url(#mrkr13-8);stroke:#000000;stroke-linecap:round;stroke-linejoin:round;stroke-width:1.5}
		.st3 {fill:#000000;fill-opacity:1;stroke:#000000;stroke-opacity:1;stroke-width:0.37313432835821}
		.st4 {fill:#c4d6a0;stroke:#000000;stroke-linecap:round;stroke-linejoin:round;stroke-width:0.75}
		.st5 {fill:#000000;font-family:Times New Roman;font-size:1.99999em}
		.st6 {fill:#f9c499;stroke:#000000;stroke-linecap:round;stroke-linejoin:round;stroke-width:0.75}
		.st7 {fill:#00b0f0;stroke:#000000;stroke-linecap:round;stroke-linejoin:round;stroke-width:0.75}
		.st8 {fill:none;stroke:none;stroke-linecap:round;stroke-linejoin:round;stroke-width:0.75}
		.st9 {stroke:#000000;stroke-dasharray:7,5;stroke-linecap:round;stroke-linejoin:round;stroke-width:1}
		.st10 {marker-end:url(#mrkr13-151);stroke:#000000;stroke-dasharray:7,5;stroke-linecap:round;stroke-linejoin:round;stroke-width:1}
		.st11 {fill:#000000;fill-opacity:1;stroke:#000000;stroke-opacity:1;stroke-width:0.28409090909091}
		.st12 {marker-end:url(#mrkr13-8);stroke:#000000;stroke-dasharray:10.5,7.5,0,7.5;stroke-linecap:round;stroke-linejoin:round;stroke-width:1.5}
		.st13 {fill:#ebf1df;stroke:#000000;stroke-dasharray:7,5;stroke-linecap:round;stroke-linejoin:round;stroke-width:1}
		.st14 {stroke:#000000;stroke-dasharray:2.25,4.5;stroke-linecap:round;stroke-linejoin:round;stroke-width:2.25}
		.st15 {marker-end:url(#mrkr13-181);stroke:#000000;stroke-dasharray:2.25,4.5;stroke-linecap:round;stroke-linejoin:round;stroke-width:2.25}
		.st16 {fill:#000000;fill-opacity:1;stroke:#000000;stroke-opacity:1;stroke-width:0.47169811320755}
		.st17 {fill:#ebf1df;stroke:#000000;stroke-dasharray:10.5,7.5,0,7.5;stroke-linecap:round;stroke-linejoin:round;stroke-width:1.5}
		.st18 {marker-start:url(#mrkr13-305);stroke:#000000;stroke-linecap:round;stroke-linejoin:round;stroke-width:0.75}
		.st19 {fill:#000000;fill-opacity:1;stroke:#000000;stroke-opacity:1;stroke-width:0.22935779816514}
		.st20 {fill:#000000;font-family:Times New Roman;font-size:1.5em}
		.st21 {stroke:#000000;stroke-linecap:round;stroke-linejoin:round;stroke-width:0.75}
		.st22 {fill:#d7e3bf;stroke:#000000;stroke-linecap:round;stroke-linejoin:round;stroke-width:0.75}
		.st23 {fill:none;fill-rule:evenodd;font-size:12px;overflow:visible;stroke-linecap:square;stroke-miterlimit:3}
	]]>
	</style>

	<defs id="Markers">
		<g id="lend13">
			<path d="M 3 1 L 0 0 L 3 -1 L 3 1 " style="stroke:none"/>
		</g>
		<marker id="mrkr13-8" class="st3" v:arrowType="13" v:arrowSize="2" v:setback="8.04" refX="-8.04" orient="auto"
				markerUnits="strokeWidth" overflow="visible">
			<use xlink:href="#lend13" transform="scale(-2.68,-2.68) "/>
		</marker>
		<marker id="mrkr13-151" class="st11" v:arrowType="13" v:arrowSize="2" v:setback="10.56" refX="-10.56" orient="auto"
				markerUnits="strokeWidth" overflow="visible">
			<use xlink:href="#lend13" transform="scale(-3.52,-3.52) "/>
		</marker>
		<marker id="mrkr13-181" class="st16" v:arrowType="13" v:arrowSize="2" v:setback="6.36" refX="-6.36" orient="auto"
				markerUnits="strokeWidth" overflow="visible">
			<use xlink:href="#lend13" transform="scale(-2.12,-2.12) "/>
		</marker>
		<marker id="mrkr13-305" class="st19" v:arrowType="13" v:arrowSize="2" v:setback="12.6" refX="12.6" orient="auto"
				markerUnits="strokeWidth" overflow="visible">
			<use xlink:href="#lend13" transform="scale(4.36) "/>
		</marker>
	</defs>
	<g v:mID="0" v:index="1" v:groupContext="foregroundPage">
		<title>页-1</title>
		<v:pageProperties v:drawingScale="0.0393701" v:pageScale="0.0393701" v:drawingUnits="24" v:shadowOffsetX="8.50394"
				v:shadowOffsetY="-8.50394"/>
		<v:layer v:name="连接线" v:index="0"/>
		<g id="shape405-1" v:mID="405" v:groupContext="shape" transform="translate(545.102,-473.816)">
			<title>工作表.405</title>
			<rect x="0" y="496.652" width="487.205" height="310.825" class="st1"/>
		</g>
		<g id="shape66-3" v:mID="66" v:groupContext="shape" transform="translate(978.381,73.13) rotate(90)">
			<title>工作表.66</title>
			<path d="M0 807.48 L6.83 807.48" class="st2"/>
		</g>
		<g id="shape67-9" v:mID="67" v:groupContext="shape" transform="translate(67.085,-690.743)">
			<title>工作表.67</title>
			<desc>IR Block-1</desc>
			<v:textBlock v:margins="rect(4,4,4,4)" v:tabSpace="42.5197"/>
			<v:textRect cx="95.8584" cy="794.759" width="191.72" height="25.4355"/>
			<rect x="0" y="782.042" width="191.717" height="25.4355" class="st4"/>
			<text x="42.2" y="801.96" class="st5" v:langID="2052"><v:paragraph v:horizAlign="1"/><v:tabList/>IR Block-1</text>		</g>
		<g id="shape68-12" v:mID="68" v:groupContext="shape" transform="translate(67.4646,-734.347)">
			<title>工作表.68</title>
			<desc>Inputs</desc>
			<v:textBlock v:margins="rect(4,4,4,4)" v:tabSpace="42.5197"/>
			<v:textRect cx="63.7795" cy="794.759" width="127.56" height="25.4355"/>
			<rect x="0" y="782.042" width="127.559" height="25.4355" class="st6"/>
			<text x="33.78" y="801.96" class="st5" v:langID="2052"><v:paragraph v:horizAlign="1"/><v:tabList/>Inputs</text>		</g>
		<g id="shape69-15" v:mID="69" v:groupContext="shape" transform="translate(978.381,116.734) rotate(90)">
			<title>工作表.69</title>
			<path d="M0 807.48 L6.83 807.48" class="st2"/>
		</g>
		<g id="shape70-20" v:mID="70" v:groupContext="shape" transform="translate(66.7307,-645.628)">
			<title>工作表.70</title>
			<desc>2×2-Conv+Relu (Stride=2)</desc>
			<v:textBlock v:margins="rect(4,4,4,4)" v:tabSpace="42.5197"/>
			<v:textRect cx="142.345" cy="796.576" width="284.69" height="21.8018"/>
			<rect x="0" y="785.675" width="284.69" height="21.8018" class="st7"/>
			<text x="11.72" y="803.78" class="st5" v:langID="2052"><v:paragraph v:horizAlign="1"/><v:tabList/>2×2-Conv+Relu (Stride=2)</text>		</g>
		<g id="shape79-23" v:mID="79" v:groupContext="shape" transform="translate(977.849,209.392) rotate(90)">
			<title>工作表.79</title>
			<path d="M0 807.48 L6.83 807.48" class="st2"/>
		</g>
		<g id="shape80-28" v:mID="80" v:groupContext="shape" transform="translate(66.5869,-554.482)">
			<title>工作表.80</title>
			<desc>IR Block-2</desc>
			<v:textBlock v:margins="rect(4,4,4,4)" v:tabSpace="42.5197"/>
			<v:textRect cx="95.8584" cy="794.759" width="191.72" height="25.4355"/>
			<rect x="0" y="782.042" width="191.717" height="25.4355" class="st4"/>
			<text x="42.2" y="801.96" class="st5" v:langID="2052"><v:paragraph v:horizAlign="1"/><v:tabList/>IR Block-2</text>		</g>
		<g id="shape81-31" v:mID="81" v:groupContext="shape" transform="translate(977.849,253.801) rotate(90)">
			<title>工作表.81</title>
			<path d="M0 807.48 L6.83 807.48" class="st2"/>
		</g>
		<g id="shape82-36" v:mID="82" v:groupContext="shape" transform="translate(66.1992,-509.345)">
			<title>工作表.82</title>
			<desc>2×2-Conv+Relu (Stride=2)</desc>
			<v:textBlock v:margins="rect(4,4,4,4)" v:tabSpace="42.5197"/>
			<v:textRect cx="135.524" cy="796.576" width="271.05" height="21.8018"/>
			<rect x="0" y="785.675" width="271.048" height="21.8018" class="st7"/>
			<text x="4.9" y="803.78" class="st5" v:langID="2052"><v:paragraph v:horizAlign="1"/><v:tabList/>2×2-Conv+Relu (Stride=2)</text>		</g>
		<g id="shape85-39" v:mID="85" v:groupContext="shape" transform="translate(978.027,345.653) rotate(90)">
			<title>工作表.85</title>
			<path d="M0 807.48 L6.83 807.48" class="st2"/>
		</g>
		<g id="shape86-44" v:mID="86" v:groupContext="shape" transform="translate(65.1214,-369.087)">
			<title>工作表.86</title>
			<desc>2×2-Up-sampling</desc>
			<v:textBlock v:margins="rect(4,4,4,4)" v:tabSpace="42.5197"/>
			<v:textRect cx="96.3882" cy="793.614" width="192.78" height="27.7252"/>
			<rect x="0" y="779.752" width="192.776" height="27.7252" class="st7"/>
			<text x="10.96" y="800.81" class="st5" v:langID="2052"><v:paragraph v:horizAlign="1"/><v:tabList/>2×2-Up-sampling</text>		</g>
		<g id="shape87-47" v:mID="87" v:groupContext="shape" transform="translate(978.027,389.257) rotate(90)">
			<title>工作表.87</title>
			<path d="M0 807.48 L6.83 807.48" class="st2"/>
		</g>
		<g id="shape88-52" v:mID="88" v:groupContext="shape" transform="translate(66.393,-280.142)">
			<title>工作表.88</title>
			<desc>IR Block-4</desc>
			<v:textBlock v:margins="rect(4,4,4,4)" v:tabSpace="42.5197"/>
			<v:textRect cx="96.3882" cy="794.759" width="192.78" height="25.4355"/>
			<rect x="0" y="782.042" width="192.776" height="25.4355" class="st4"/>
			<text x="42.73" y="801.96" class="st5" v:langID="2052"><v:paragraph v:horizAlign="1"/><v:tabList/>IR Block-4</text>		</g>
		<g id="shape89-55" v:mID="89" v:groupContext="shape" transform="translate(174.057,-325.926)">
			<title>工作表.89</title>
			<desc>Feature Map</desc>
			<v:textBlock v:margins="rect(4,4,4,4)" v:tabSpace="42.5197"/>
			<v:textRect cx="68.0315" cy="794.759" width="136.07" height="25.4355"/>
			<rect x="0" y="782.042" width="136.063" height="25.4355" class="st6"/>
			<text x="7.05" y="801.96" class="st5" v:langID="2052"><v:paragraph v:horizAlign="1"/><v:tabList/>Feature Map</text>		</g>
		<g id="shape90-58" v:mID="90" v:groupContext="shape" transform="translate(909.449,438.932) rotate(90)">
			<title>工作表.90</title>
			<path d="M0 807.48 L6.83 807.48" class="st2"/>
		</g>
		<g id="shape93-63" v:mID="93" v:groupContext="shape" transform="translate(1025.67,483.447) rotate(90)">
			<title>工作表.93</title>
			<path d="M0 807.48 L6.83 807.48" class="st2"/>
		</g>
		<g id="shape94-68" v:mID="94" v:groupContext="shape" transform="translate(66.5181,-234.279)">
			<title>工作表.94</title>
			<desc>2×2-Up-sampling</desc>
			<v:textBlock v:margins="rect(4,4,4,4)" v:tabSpace="42.5197"/>
			<v:textRect cx="95.8584" cy="794.759" width="191.72" height="25.4355"/>
			<rect x="0" y="782.042" width="191.717" height="25.4355" class="st7"/>
			<text x="10.43" y="801.96" class="st5" v:langID="2052"><v:paragraph v:horizAlign="1"/><v:tabList/>2×2-Up-sampling</text>		</g>
		<g id="shape95-71" v:mID="95" v:groupContext="shape" transform="translate(978.168,527.335) rotate(90)">
			<title>工作表.95</title>
			<path d="M0 807.48 L6.83 807.48" class="st2"/>
		</g>
		<g id="shape96-76" v:mID="96" v:groupContext="shape" transform="translate(66.5481,-143.517)">
			<title>工作表.96</title>
			<desc>IR Block-5</desc>
			<v:textBlock v:margins="rect(4,4,4,4)" v:tabSpace="42.5197"/>
			<v:textRect cx="96.3882" cy="794.759" width="192.78" height="25.4355"/>
			<rect x="0" y="782.042" width="192.776" height="25.4355" class="st4"/>
			<text x="42.73" y="801.96" class="st5" v:langID="2052"><v:paragraph v:horizAlign="1"/><v:tabList/>IR Block-5</text>		</g>
		<g id="shape106-79" v:mID="106" v:groupContext="shape" transform="translate(185.8,-668.499)">
			<title>工作表.106</title>
			<desc>Kernel # =32</desc>
			<v:textBlock v:margins="rect(4,4,4,4)" v:tabSpace="42.5197"/>
			<v:textRect cx="75.7238" cy="797.222" width="151.45" height="20.5099"/>
			<rect x="0" y="786.967" width="151.448" height="20.5099" class="st8"/>
			<text x="12.31" y="804.42" class="st5" v:langID="2052"><v:paragraph v:horizAlign="1"/><v:tabList/>Kernel # =32</text>		</g>
		<g id="shape109-82" v:mID="109" v:groupContext="shape" transform="translate(184.886,-533.166)">
			<title>工作表.109</title>
			<desc>Kernel #=64</desc>
			<v:textBlock v:margins="rect(4,4,4,4)" v:tabSpace="42.5197"/>
			<v:textRect cx="64.8446" cy="797.222" width="129.69" height="20.5099"/>
			<rect x="0" y="786.967" width="129.689" height="20.5099" class="st8"/>
			<text x="4.43" y="804.42" class="st5" v:langID="2052"><v:paragraph v:horizAlign="1"/><v:tabList/>Kernel #=64</text>		</g>
		<g id="shape110-85" v:mID="110" v:groupContext="shape" transform="translate(181.342,-396.541)">
			<title>工作表.110</title>
			<desc>Kernel #=128</desc>
			<v:textBlock v:margins="rect(4,4,4,4)" v:tabSpace="42.5197"/>
			<v:textRect cx="75.7238" cy="797.222" width="151.45" height="20.5099"/>
			<rect x="0" y="786.967" width="151.448" height="20.5099" class="st8"/>
			<text x="9.31" y="804.42" class="st5" v:langID="2052"><v:paragraph v:horizAlign="1"/><v:tabList/>Kernel #=128</text>		</g>
		<g id="shape111-88" v:mID="111" v:groupContext="shape" transform="translate(185.8,-259.997)">
			<title>工作表.111</title>
			<desc>Kernel #=64</desc>
			<v:textBlock v:margins="rect(4,4,4,4)" v:tabSpace="42.5197"/>
			<v:textRect cx="64.8446" cy="797.222" width="129.69" height="20.5099"/>
			<rect x="0" y="786.967" width="129.689" height="20.5099" class="st8"/>
			<text x="4.43" y="804.42" class="st5" v:langID="2052"><v:paragraph v:horizAlign="1"/><v:tabList/>Kernel #=64</text>		</g>
		<g id="shape112-91" v:mID="112" v:groupContext="shape" transform="translate(66.1992,-418.22)">
			<title>工作表.112</title>
			<desc>IR Block-3</desc>
			<v:textBlock v:margins="rect(4,4,4,4)" v:tabSpace="42.5197"/>
			<v:textRect cx="95.8584" cy="794.759" width="191.72" height="25.4355"/>
			<rect x="0" y="782.042" width="191.717" height="25.4355" class="st4"/>
			<text x="42.2" y="801.96" class="st5" v:langID="2052"><v:paragraph v:horizAlign="1"/><v:tabList/>IR Block-3</text>		</g>
		<g id="shape114-94" v:mID="114" v:groupContext="shape" transform="translate(979.42,666.183) rotate(90)">
			<title>工作表.114</title>
			<path d="M0 807.48 L6.83 807.48" class="st2"/>
		</g>
		<g id="shape115-99" v:mID="115" v:groupContext="shape" transform="translate(185.946,-121.999)">
			<title>工作表.115</title>
			<desc>Kernel #=32</desc>
			<v:textBlock v:margins="rect(4,4,4,4)" v:tabSpace="42.5197"/>
			<v:textRect cx="64.8446" cy="797.222" width="129.69" height="20.5099"/>
			<rect x="0" y="786.967" width="129.689" height="20.5099" class="st8"/>
			<text x="4.43" y="804.42" class="st5" v:langID="2052"><v:paragraph v:horizAlign="1"/><v:tabList/>Kernel #=32</text>		</g>
		<g id="shape116-102" v:mID="116" v:groupContext="shape" transform="translate(67.4646,-47.1462)">
			<title>工作表.116</title>
			<desc>Outputs-1</desc>
			<v:textBlock v:margins="rect(4,4,4,4)" v:tabSpace="42.5197"/>
			<v:textRect cx="63.7795" cy="794.759" width="127.56" height="25.4355"/>
			<rect x="0" y="782.042" width="127.559" height="25.4355" class="st6"/>
			<text x="15.78" y="801.96" class="st5" v:langID="2052"><v:paragraph v:horizAlign="1"/><v:tabList/>Outputs-1</text>		</g>
		<g id="shape117-105" v:mID="117" v:groupContext="shape" transform="translate(66.5181,-97.2904)">
			<title>工作表.117</title>
			<desc>1×1-Conv+Relu+Softmax</desc>
			<v:textBlock v:margins="rect(4,4,4,4)" v:tabSpace="42.5197"/>
			<v:textRect cx="135.524" cy="796.576" width="271.05" height="21.8018"/>
			<rect x="0" y="785.675" width="271.048" height="21.8018" class="st7"/>
			<text x="9.89" y="803.78" class="st5" v:langID="2052"><v:paragraph v:horizAlign="1"/><v:tabList/>1×1-Conv+Relu+Softmax</text>		</g>
		<g id="shape119-108" v:mID="119" v:groupContext="shape" transform="translate(179.212,-73.9544)">
			<title>工作表.119</title>
			<desc>Kernel #=2</desc>
			<v:textBlock v:margins="rect(4,4,4,4)" v:tabSpace="42.5197"/>
			<v:textRect cx="64.8446" cy="797.222" width="129.69" height="20.5099"/>
			<rect x="0" y="786.967" width="129.689" height="20.5099" class="st8"/>
			<text x="10.43" y="804.42" class="st5" v:langID="2052"><v:paragraph v:horizAlign="1"/><v:tabList/>Kernel #=2</text>		</g>
		<g id="shape120-111" v:mID="120" v:groupContext="shape" transform="translate(978.898,713.093) rotate(90)">
			<title>工作表.120</title>
			<path d="M0 807.48 L6.83 807.48" class="st2"/>
		</g>
		<g id="shape121-116" v:mID="121" v:groupContext="shape" transform="translate(202.815,-602.04)">
			<title>工作表.121</title>
			<desc>Size=24×24</desc>
			<v:textBlock v:margins="rect(4,4,4,4)" v:tabSpace="42.5197"/>
			<v:textRect cx="64.8446" cy="797.222" width="129.69" height="20.5099"/>
			<rect x="0" y="786.967" width="129.689" height="20.5099" class="st8"/>
			<text x="6.65" y="804.42" class="st5" v:langID="2052"><v:paragraph v:horizAlign="1"/><v:tabList/>Size=24×24</text>		</g>
		<g id="shape123-119" v:mID="123" v:groupContext="shape" transform="translate(67.4646,-764.822)">
			<title>工作表.123</title>
			<desc>Size=48×48</desc>
			<v:textBlock v:margins="rect(4,4,4,4)" v:tabSpace="42.5197"/>
			<v:textRect cx="64.8446" cy="797.222" width="129.69" height="20.5099"/>
			<rect x="0" y="786.967" width="129.689" height="20.5099" class="st8"/>
			<text x="6.65" y="804.42" class="st5" v:langID="2052"><v:paragraph v:horizAlign="1"/><v:tabList/>Size=48×48</text>		</g>
		<g id="shape124-122" v:mID="124" v:groupContext="shape" transform="translate(309.605,-327.256)">
			<title>工作表.124</title>
			<desc>Size=24×24</desc>
			<v:textBlock v:margins="rect(4,4,4,4)" v:tabSpace="42.5197"/>
			<v:textRect cx="64.8446" cy="797.222" width="129.69" height="20.5099"/>
			<rect x="0" y="786.967" width="129.689" height="20.5099" class="st8"/>
			<text x="6.65" y="804.42" class="st5" v:langID="2052"><v:paragraph v:horizAlign="1"/><v:tabList/>Size=24×24</text>		</g>
		<g id="shape125-125" v:mID="125" v:groupContext="shape" transform="translate(308.901,-192.165)">
			<title>工作表.125</title>
			<desc>Size=48×48</desc>
			<v:textBlock v:margins="rect(4,4,4,4)" v:tabSpace="42.5197"/>
			<v:textRect cx="64.8446" cy="797.222" width="129.69" height="20.5099"/>
			<rect x="0" y="786.967" width="129.689" height="20.5099" class="st8"/>
			<text x="6.65" y="804.42" class="st5" v:langID="2052"><v:paragraph v:horizAlign="1"/><v:tabList/>Size=48×48</text>		</g>
		<g id="shape126-128" v:mID="126" v:groupContext="shape" transform="translate(66.0472,-22.1451)">
			<title>工作表.126</title>
			<desc>Size=48×48</desc>
			<v:textBlock v:margins="rect(4,4,4,4)" v:tabSpace="42.5197"/>
			<v:textRect cx="62.3723" cy="797.222" width="124.75" height="20.5099"/>
			<rect x="0" y="786.967" width="124.745" height="20.5099" class="st8"/>
			<text x="4.18" y="804.42" class="st5" v:langID="2052"><v:paragraph v:horizAlign="1"/><v:tabList/>Size=48×48</text>		</g>
		<g id="shape127-131" v:mID="127" v:groupContext="shape" transform="translate(202.11,-467.852)">
			<title>工作表.127</title>
			<desc>Size=12×12</desc>
			<v:textBlock v:margins="rect(4,4,4,4)" v:tabSpace="42.5197"/>
			<v:textRect cx="64.8446" cy="797.222" width="129.69" height="20.5099"/>
			<rect x="0" y="786.967" width="129.689" height="20.5099" class="st8"/>
			<text x="6.65" y="804.42" class="st5" v:langID="2052"><v:paragraph v:horizAlign="1"/><v:tabList/>Size=12×12</text>		</g>
		<g id="shape140-134" v:mID="140" v:groupContext="shape" transform="translate(259.17,-293.907)">
			<title>工作表.140</title>
			<path d="M0 807.48 L193.81 807.48" class="st9"/>
		</g>
		<g id="shape142-137" v:mID="142" v:groupContext="shape" transform="translate(257.916,-430.532)">
			<title>工作表.142</title>
			<path d="M0 807.48 L195.06 807.48" class="st9"/>
		</g>
		<g id="shape145-140" v:mID="145" v:groupContext="shape" transform="translate(258.304,-567.157)">
			<title>工作表.145</title>
			<path d="M0 807.48 L194.67 807.48" class="st9"/>
		</g>
		<g id="shape146-143" v:mID="146" v:groupContext="shape" transform="translate(258.802,-703.782)">
			<title>工作表.146</title>
			<path d="M0 807.48 L194.17 807.48" class="st9"/>
		</g>
		<g id="shape147-146" v:mID="147" v:groupContext="shape" transform="translate(259.325,-156.041)">
			<title>工作表.147</title>
			<path d="M0 807.48 L99.47 807.48" class="st10"/>
		</g>
		<g id="shape148-152" v:mID="148" v:groupContext="shape" transform="translate(1260.45,103.695) rotate(90)">
			<title>工作表.148</title>
			<path d="M0 807.48 L526.72 807.48" class="st10"/>
		</g>
		<g id="shape149-157" v:mID="149" v:groupContext="shape" transform="translate(452.976,-293.907)">
			<title>工作表.149</title>
			<path d="M0 807.48 L297.41 807.48" class="st12"/>
		</g>
		<g id="shape155-162" v:mID="155" v:groupContext="shape" transform="translate(452.976,-430.532)">
			<title>工作表.155</title>
			<path d="M0 807.48 L297.41 807.48" class="st12"/>
		</g>
		<g id="shape158-167" v:mID="158" v:groupContext="shape" transform="translate(679.925,-86.1594)">
			<title>工作表.158</title>
			<desc>Richer Feature Supervision Path</desc>
			<v:textBlock v:margins="rect(4,4,4,4)" v:tabSpace="42.5197"/>
			<v:textRect cx="162.815" cy="782.95" width="325.63" height="49.0542"/>
			<path d="M0 807.48 L325.63 807.48 L325.63 758.42 L0 758.42 L0 807.48 Z" class="st13"/>
			<text x="7.18" y="790.15" class="st5" v:langID="2052"><v:paragraph v:horizAlign="1"/><v:tabList/>Richer Feature Supervision Path</text>		</g>
		<g id="shape168-170" v:mID="168" v:groupContext="shape" transform="translate(66.5869,1048.87) rotate(180)">
			<title>工作表.168</title>
			<path d="M0 807.48 L21.14 807.48" class="st14"/>
		</g>
		<g id="shape169-173" v:mID="169" v:groupContext="shape" transform="translate(852.92,241.389) rotate(90)">
			<title>工作表.169</title>
			<path d="M0 807.48 L228.19 807.48" class="st14"/>
		</g>
		<g id="shape170-176" v:mID="170" v:groupContext="shape" transform="translate(45.4431,-337.896)">
			<title>工作表.170</title>
			<path d="M0 807.48 L6.75 807.48" class="st15"/>
		</g>
		<g id="shape171-182" v:mID="171" v:groupContext="shape" transform="translate(33.0841,-201.271)">
			<title>工作表.171</title>
			<path d="M33.12 307.49 L0 307.49 L0 807.48" class="st14"/>
		</g>
		<g id="shape172-185" v:mID="172" v:groupContext="shape" transform="translate(33.0841,-201.271)">
			<title>工作表.172</title>
			<path d="M0 807.48 L20.56 807.48" class="st15"/>
		</g>
		<g id="shape174-190" v:mID="174" v:groupContext="shape" transform="translate(63.7219,-327.72) rotate(-0.2)">
			<title>工作表.174</title>
			<desc>Concat</desc>
			<v:textBlock v:margins="rect(4,4,4,4)" v:tabSpace="42.5197"/>
			<v:textRect cx="43.2443" cy="796.576" width="86.49" height="21.8018"/>
			<rect x="0" y="785.675" width="86.4886" height="21.8018" class="st7"/>
			<text x="9.25" y="803.78" class="st5" v:langID="2052"><v:paragraph v:horizAlign="1"/><v:tabList/>Concat</text>		</g>
		<g id="shape175-193" v:mID="175" v:groupContext="shape" transform="translate(153.921,-339.349)">
			<title>工作表.175</title>
			<path d="M0 807.48 L8.08 807.48" class="st2"/>
		</g>
		<g id="shape176-198" v:mID="176" v:groupContext="shape" transform="translate(172.838,-189.643)">
			<title>工作表.176</title>
			<desc>Feature Map</desc>
			<v:textBlock v:margins="rect(4,4,4,4)" v:tabSpace="42.5197"/>
			<v:textRect cx="68.0315" cy="794.759" width="136.07" height="25.4355"/>
			<rect x="0" y="782.042" width="136.063" height="25.4355" class="st6"/>
			<text x="7.05" y="801.96" class="st5" v:langID="2052"><v:paragraph v:horizAlign="1"/><v:tabList/>Feature Map</text>		</g>
		<g id="shape177-201" v:mID="177" v:groupContext="shape" transform="translate(909.449,573.888) rotate(90)">
			<title>工作表.177</title>
			<path d="M0 807.48 L6.83 807.48" class="st2"/>
		</g>
		<g id="shape178-206" v:mID="178" v:groupContext="shape" transform="translate(1025.67,617.834) rotate(90)">
			<title>工作表.178</title>
			<path d="M0 807.48 L6.83 807.48" class="st2"/>
		</g>
		<g id="shape179-211" v:mID="179" v:groupContext="shape" transform="translate(63.7747,-192.443) rotate(-0.2)">
			<title>工作表.179</title>
			<desc>Concat</desc>
			<v:textBlock v:margins="rect(4,4,4,4)" v:tabSpace="42.5197"/>
			<v:textRect cx="43.2255" cy="796.576" width="86.46" height="21.8018"/>
			<rect x="0" y="785.675" width="86.4511" height="21.8018" class="st7"/>
			<text x="9.24" y="803.78" class="st5" v:langID="2052"><v:paragraph v:horizAlign="1"/><v:tabList/>Concat</text>		</g>
		<g id="shape180-214" v:mID="180" v:groupContext="shape" transform="translate(153.933,-203.066)">
			<title>工作表.180</title>
			<path d="M0 807.48 L8.08 807.48" class="st2"/>
		</g>
		<g id="shape211-219" v:mID="211" v:groupContext="shape" transform="translate(370.497,-144.702)">
			<title>工作表.211</title>
			<desc>Resize + Concat</desc>
			<v:textBlock v:margins="rect(4,4,4,4)" v:tabSpace="42.5197"/>
			<v:textRect cx="85.3145" cy="796.576" width="170.63" height="21.8018"/>
			<rect x="0" y="785.675" width="170.629" height="21.8018" class="st7"/>
			<text x="6.57" y="803.78" class="st5" v:langID="2052"><v:paragraph v:horizAlign="1"/><v:tabList/>Resize + Concat</text>		</g>
		<g id="shape338-222" v:mID="338" v:groupContext="shape" transform="translate(66.1992,-465.017)">
			<title>工作表.338</title>
			<desc>Feature Map</desc>
			<v:textBlock v:margins="rect(4,4,4,4)" v:tabSpace="42.5197"/>
			<v:textRect cx="68.0315" cy="794.759" width="136.07" height="25.4355"/>
			<rect x="0" y="782.042" width="136.063" height="25.4355" class="st6"/>
			<text x="7.05" y="801.96" class="st5" v:langID="2052"><v:paragraph v:horizAlign="1"/><v:tabList/>Feature Map</text>		</g>
		<g id="shape339-225" v:mID="339" v:groupContext="shape" transform="translate(66.7307,-599.663)">
			<title>工作表.339</title>
			<desc>Feature Map</desc>
			<v:textBlock v:margins="rect(4,4,4,4)" v:tabSpace="42.5197"/>
			<v:textRect cx="68.0315" cy="794.759" width="136.07" height="25.4355"/>
			<rect x="0" y="782.042" width="136.063" height="25.4355" class="st6"/>
			<text x="7.05" y="801.96" class="st5" v:langID="2052"><v:paragraph v:horizAlign="1"/><v:tabList/>Feature Map</text>		</g>
		<g id="shape340-228" v:mID="340" v:groupContext="shape" transform="translate(977.48,298.858) rotate(90)">
			<title>工作表.340</title>
			<path d="M0 807.48 L6.83 807.48" class="st2"/>
		</g>
		<g id="shape341-233" v:mID="341" v:groupContext="shape" transform="translate(977.48,162.618) rotate(90)">
			<title>工作表.341</title>
			<path d="M0 807.48 L6.83 807.48" class="st2"/>
		</g>
		<g id="shape348-238" v:mID="348" v:groupContext="shape" transform="translate(369.354,-47.1462)">
			<title>工作表.348</title>
			<desc>Outputs-2</desc>
			<v:textBlock v:margins="rect(4,4,4,4)" v:tabSpace="42.5197"/>
			<v:textRect cx="63.7795" cy="794.759" width="127.56" height="25.4355"/>
			<rect x="0" y="782.042" width="127.559" height="25.4355" class="st6"/>
			<text x="15.78" y="801.96" class="st5" v:langID="2052"><v:paragraph v:horizAlign="1"/><v:tabList/>Outputs-2</text>		</g>
		<g id="shape349-241" v:mID="349" v:groupContext="shape" transform="translate(370.432,-96.5132)">
			<title>工作表.349</title>
			<desc>1×1-Conv+Relu+Softmax</desc>
			<v:textBlock v:margins="rect(4,4,4,4)" v:tabSpace="42.5197"/>
			<v:textRect cx="135.524" cy="796.576" width="271.05" height="21.8018"/>
			<rect x="0" y="785.675" width="271.048" height="21.8018" class="st7"/>
			<text x="9.89" y="803.78" class="st5" v:langID="2052"><v:paragraph v:horizAlign="1"/><v:tabList/>1×1-Conv+Relu+Softmax</text>		</g>
		<g id="shape350-244" v:mID="350" v:groupContext="shape" transform="translate(483.092,-73.1687)">
			<title>工作表.350</title>
			<desc>Kernel #=2</desc>
			<v:textBlock v:margins="rect(4,4,4,4)" v:tabSpace="42.5197"/>
			<v:textRect cx="64.8446" cy="797.222" width="129.69" height="20.5099"/>
			<rect x="0" y="786.967" width="129.689" height="20.5099" class="st8"/>
			<text x="10.43" y="804.42" class="st5" v:langID="2052"><v:paragraph v:horizAlign="1"/><v:tabList/>Kernel #=2</text>		</g>
		<g id="shape351-247" v:mID="351" v:groupContext="shape" transform="translate(1261.07,715.355) rotate(90)">
			<title>工作表.351</title>
			<path d="M0 807.48 L6.83 807.48" class="st2"/>
		</g>
		<g id="shape352-252" v:mID="352" v:groupContext="shape" transform="translate(369.344,-22.1451)">
			<title>工作表.352</title>
			<desc>Size=48×48</desc>
			<v:textBlock v:margins="rect(4,4,4,4)" v:tabSpace="42.5197"/>
			<v:textRect cx="62.3723" cy="797.222" width="124.75" height="20.5099"/>
			<rect x="0" y="786.967" width="124.745" height="20.5099" class="st8"/>
			<text x="4.18" y="804.42" class="st5" v:langID="2052"><v:paragraph v:horizAlign="1"/><v:tabList/>Size=48×48</text>		</g>
		<g id="shape353-255" v:mID="353" v:groupContext="shape" transform="translate(1260.45,668.444) rotate(90)">
			<title>工作表.353</title>
			<path d="M0 807.48 L6.83 807.48" class="st2"/>
		</g>
		<g id="shape362-260" v:mID="362" v:groupContext="shape" transform="translate(905.933,-370.095)">
			<title>工作表.362</title>
			<desc>Outputs-3</desc>
			<v:textBlock v:margins="rect(4,4,4,4)" v:tabSpace="42.5197"/>
			<v:textRect cx="63.7795" cy="794.759" width="127.56" height="25.4355"/>
			<rect x="0" y="782.042" width="127.559" height="25.4355" class="st6"/>
			<text x="15.78" y="801.96" class="st5" v:langID="2052"><v:paragraph v:horizAlign="1"/><v:tabList/>Outputs-3</text>		</g>
		<g id="shape363-263" v:mID="363" v:groupContext="shape" transform="translate(762.444,-420.358)">
			<title>工作表.363</title>
			<desc>1×1-Conv+Relu+Softmax</desc>
			<v:textBlock v:margins="rect(4,4,4,4)" v:tabSpace="42.5197"/>
			<v:textRect cx="135.524" cy="796.576" width="271.05" height="21.8018"/>
			<rect x="0" y="785.675" width="271.048" height="21.8018" class="st7"/>
			<text x="9.89" y="803.78" class="st5" v:langID="2052"><v:paragraph v:horizAlign="1"/><v:tabList/>1×1-Conv+Relu+Softmax</text>		</g>
		<g id="shape364-266" v:mID="364" v:groupContext="shape" transform="translate(762.444,-396.318)">
			<title>工作表.364</title>
			<desc>Kernel #=2</desc>
			<v:textBlock v:margins="rect(4,4,4,4)" v:tabSpace="42.5197"/>
			<v:textRect cx="64.8446" cy="797.222" width="129.69" height="20.5099"/>
			<rect x="0" y="786.967" width="129.689" height="20.5099" class="st8"/>
			<text x="10.43" y="804.42" class="st5" v:langID="2052"><v:paragraph v:horizAlign="1"/><v:tabList/>Kernel #=2</text>		</g>
		<g id="shape365-269" v:mID="365" v:groupContext="shape" transform="translate(905.933,-348.463)">
			<title>工作表.365</title>
			<desc>Size=12×12</desc>
			<v:textBlock v:margins="rect(4,4,4,4)" v:tabSpace="42.5197"/>
			<v:textRect cx="62.3723" cy="797.222" width="124.75" height="20.5099"/>
			<rect x="0" y="786.967" width="124.745" height="20.5099" class="st8"/>
			<text x="4.18" y="804.42" class="st5" v:langID="2052"><v:paragraph v:horizAlign="1"/><v:tabList/>Size=12×12</text>		</g>
		<g id="shape366-272" v:mID="366" v:groupContext="shape" transform="translate(1774.94,392.066) rotate(90)">
			<title>工作表.366</title>
			<path d="M0 807.48 L6.83 807.48" class="st2"/>
		</g>
		<g id="shape367-277" v:mID="367" v:groupContext="shape" transform="translate(905.933,-229.742)">
			<title>工作表.367</title>
			<desc>Outputs-4</desc>
			<v:textBlock v:margins="rect(4,4,4,4)" v:tabSpace="42.5197"/>
			<v:textRect cx="63.7795" cy="794.759" width="127.56" height="25.4355"/>
			<rect x="0" y="782.042" width="127.559" height="25.4355" class="st6"/>
			<text x="15.78" y="801.96" class="st5" v:langID="2052"><v:paragraph v:horizAlign="1"/><v:tabList/>Outputs-4</text>		</g>
		<g id="shape368-280" v:mID="368" v:groupContext="shape" transform="translate(762.444,-280.826)">
			<title>工作表.368</title>
			<desc>1×1-Conv+Relu+Softmax</desc>
			<v:textBlock v:margins="rect(4,4,4,4)" v:tabSpace="42.5197"/>
			<v:textRect cx="135.524" cy="796.576" width="271.05" height="21.8018"/>
			<rect x="0" y="785.675" width="271.048" height="21.8018" class="st7"/>
			<text x="9.89" y="803.78" class="st5" v:langID="2052"><v:paragraph v:horizAlign="1"/><v:tabList/>1×1-Conv+Relu+Softmax</text>		</g>
		<g id="shape369-283" v:mID="369" v:groupContext="shape" transform="translate(762.444,-256.117)">
			<title>工作表.369</title>
			<desc>Kernel #=2</desc>
			<v:textBlock v:margins="rect(4,4,4,4)" v:tabSpace="42.5197"/>
			<v:textRect cx="64.8446" cy="797.222" width="129.69" height="20.5099"/>
			<rect x="0" y="786.967" width="129.689" height="20.5099" class="st8"/>
			<text x="10.43" y="804.42" class="st5" v:langID="2052"><v:paragraph v:horizAlign="1"/><v:tabList/>Kernel #=2</text>		</g>
		<g id="shape370-286" v:mID="370" v:groupContext="shape" transform="translate(905.933,-206.731)">
			<title>工作表.370</title>
			<desc>Size=24×24</desc>
			<v:textBlock v:margins="rect(4,4,4,4)" v:tabSpace="42.5197"/>
			<v:textRect cx="62.3723" cy="797.222" width="124.75" height="20.5099"/>
			<rect x="0" y="786.967" width="124.745" height="20.5099" class="st8"/>
			<text x="4.18" y="804.42" class="st5" v:langID="2052"><v:paragraph v:horizAlign="1"/><v:tabList/>Size=24×24</text>		</g>
		<g id="shape371-289" v:mID="371" v:groupContext="shape" transform="translate(1774.94,528.8) rotate(90)">
			<title>工作表.371</title>
			<path d="M0 807.48 L6.83 807.48" class="st2"/>
		</g>
		<g id="shape373-294" v:mID="373" v:groupContext="shape" transform="translate(456.52,-342.961)">
			<title>工作表.373</title>
			<desc>Multi-scale Supervision Paths</desc>
			<v:textBlock v:margins="rect(4,4,4,4)" v:tabSpace="42.5197"/>
			<v:textRect cx="148.465" cy="782.95" width="296.93" height="49.0542"/>
			<path d="M0 807.48 L296.93 807.48 L296.93 758.42 L0 758.42 L0 807.48 Z" class="st17"/>
			<text x="4.48" y="790.15" class="st5" v:langID="2052"><v:paragraph v:horizAlign="1"/><v:tabList/>Multi-scale Supervision Paths</text>		</g>
		<g id="shape406-297" v:mID="406" v:groupContext="shape" transform="translate(550.772,-755.863)">
			<title>工作表.406</title>
			<desc>IR Block</desc>
			<v:textBlock v:margins="rect(4,4,4,4)" v:tabSpace="42.5197"/>
			<v:textRect cx="63.7795" cy="795.075" width="127.56" height="24.8031"/>
			<rect x="0" y="782.674" width="127.559" height="24.8031" class="st4"/>
			<text x="20.12" y="802.28" class="st5" v:langID="2052"><v:paragraph v:horizAlign="1"/><v:tabList/>IR Block</text>		</g>
		<g id="shape407-300" v:mID="407" v:groupContext="shape" transform="translate(547.09,824.497) rotate(-153.993)">
			<title>工作表.407</title>
			<path d="M9.45 807.48 L9.81 807.48 L122.91 807.48" class="st18"/>
		</g>
		<g id="shape408-306" v:mID="408" v:groupContext="shape" transform="translate(557.107,-628.345) rotate(-0.2)">
			<title>工作表.408</title>
			<desc>1×1-Conv+Relu+BN</desc>
			<v:textBlock v:margins="rect(4,4,4,4)" v:tabSpace="42.5197"/>
			<v:textRect cx="82.0825" cy="796.101" width="164.17" height="22.7512"/>
			<rect x="0" y="784.726" width="164.165" height="22.7512" class="st7"/>
			<text x="5.86" y="801.5" class="st20" v:langID="2052"><v:paragraph v:horizAlign="1"/><v:tabList/>1×1-Conv+Relu+BN</text>		</g>
		<g id="shape409-309" v:mID="409" v:groupContext="shape" transform="translate(724.465,-478.038) rotate(-0.2)">
			<title>工作表.409</title>
			<desc>Concat</desc>
			<v:textBlock v:margins="rect(4,4,4,4)" v:tabSpace="42.5197"/>
			<v:textRect cx="35.2257" cy="796.384" width="70.46" height="22.1856"/>
			<rect x="0" y="785.291" width="70.4515" height="22.1856" class="st7"/>
			<text x="9.73" y="801.78" class="st20" v:langID="2052"><v:paragraph v:horizAlign="1"/><v:tabList/>Concat</text>		</g>
		<g id="shape410-312" v:mID="410" v:groupContext="shape" transform="translate(731.511,-762.379) rotate(-0.2)">
			<title>工作表.410</title>
			<desc>Inputs</desc>
			<v:textBlock v:margins="rect(4,4,4,4)" v:tabSpace="42.5197"/>
			<v:textRect cx="28.1806" cy="796.384" width="56.37" height="22.1856"/>
			<rect x="0" y="785.291" width="56.3612" height="22.1856" class="st6"/>
			<text x="5.68" y="801.78" class="st20" v:langID="2052"><v:paragraph v:horizAlign="1"/><v:tabList/>Inputs</text>		</g>
		<g id="shape411-315" v:mID="411" v:groupContext="shape" transform="translate(583.965,-481.82) rotate(-12.2906)">
			<title>工作表.411</title>
			<path d="M9.45 807.48 L9.81 807.48 L140.41 807.48" class="st18"/>
		</g>
		<g id="shape412-320" v:mID="412" v:groupContext="shape" transform="translate(72.5138,-444.766) rotate(-42.2106)">
			<title>工作表.412</title>
			<path d="M9.45 807.48 L9.81 807.48 L161.07 807.48" class="st18"/>
		</g>
		<g id="shape413-325" v:mID="413" v:groupContext="shape" transform="translate(203.871,896.501) rotate(-136.875)">
			<title>工作表.413</title>
			<path d="M9.45 807.48 L9.81 807.48 L192.59 807.48" class="st18"/>
		</g>
		<g id="shape414-330" v:mID="414" v:groupContext="shape" transform="translate(-51.7201,307.518) rotate(-90)">
			<title>工作表.414</title>
			<path d="M9.45 807.48 L9.81 807.48 L262.51 807.48" class="st18"/>
		</g>
		<g id="shape415-335" v:mID="415" v:groupContext="shape" transform="translate(878.809,1125.43) rotate(180)">
			<title>工作表.415</title>
			<path d="M9.45 807.48 L9.81 807.48 L81.11 807.48" class="st18"/>
		</g>
		<g id="shape416-340" v:mID="416" v:groupContext="shape" transform="translate(878.886,-478.09) rotate(-0.2)">
			<title>工作表.416</title>
			<desc>Outputs</desc>
			<v:textBlock v:margins="rect(4,4,4,4)" v:tabSpace="42.5197"/>
			<v:textRect cx="35.09" cy="796.384" width="70.18" height="22.1856"/>
			<rect x="0" y="785.291" width="70.1799" height="22.1856" class="st6"/>
			<text x="6.59" y="801.78" class="st20" v:langID="2052"><v:paragraph v:horizAlign="1"/><v:tabList/>Outputs</text>		</g>
		<g id="shape417-343" v:mID="417" v:groupContext="shape" transform="translate(780.175,-565.882) rotate(-0.2)">
			<title>工作表.417</title>
			<desc>3×3-Dilated-Conv+Relu+BN</desc>
			<v:textBlock v:margins="rect(4,4,4,4)" v:tabSpace="42.5197"/>
			<v:textRect cx="112.664" cy="796.384" width="225.33" height="22.1856"/>
			<rect x="0" y="785.291" width="225.327" height="22.1856" class="st7"/>
			<text x="6.95" y="801.78" class="st20" v:langID="2052"><v:paragraph v:horizAlign="1"/><v:tabList/>3×3-Dilated-Conv+Relu+BN</text>		</g>
		<g id="shape418-346" v:mID="418" v:groupContext="shape" transform="translate(94.1323,141.361) rotate(-90)">
			<title>工作表.418</title>
			<path d="M9.45 807.48 L9.81 807.48 L19.23 807.48" class="st18"/>
		</g>
		<g id="shape419-351" v:mID="419" v:groupContext="shape" transform="translate(821.517,-686.237) rotate(-0.2)">
			<title>工作表.419</title>
			<desc>1×1-Conv+Relu+BN</desc>
			<v:textBlock v:margins="rect(4,4,4,4)" v:tabSpace="42.5197"/>
			<v:textRect cx="81.1817" cy="796.384" width="162.37" height="22.1856"/>
			<rect x="0" y="785.291" width="162.363" height="22.1856" class="st7"/>
			<text x="4.95" y="801.78" class="st20" v:langID="2052"><v:paragraph v:horizAlign="1"/><v:tabList/>1×1-Conv+Relu+BN</text>		</g>
		<g id="shape420-354" v:mID="420" v:groupContext="shape" transform="translate(912.344,-536.616) rotate(-0.174739)">
			<title>工作表.420</title>
			<path d="M9.45 807.48 L9.81 807.48 L98.4 807.48" class="st18"/>
		</g>
		<g id="shape421-359" v:mID="421" v:groupContext="shape" transform="translate(901.609,-680.906)">
			<title>工作表.421</title>
			<path d="M0 807.48 L111.78 807.48" class="st21"/>
		</g>
		<g id="shape422-362" v:mID="422" v:groupContext="shape" transform="translate(1820.87,127.58) rotate(90.0716)">
			<title>工作表.422</title>
			<path d="M0 807.48 L143.99 807.48" class="st21"/>
		</g>
		<g id="shape423-365" v:mID="423" v:groupContext="shape" transform="translate(94.5471,258.184) rotate(-90)">
			<title>工作表.423</title>
			<path d="M9.45 807.48 L9.81 807.48 L17.01 807.48" class="st18"/>
		</g>
		<g id="shape424-370" v:mID="424" v:groupContext="shape" transform="translate(888.684,-524.916) rotate(-0.2)">
			<title>工作表.424</title>
			<ellipse cx="10.5678" cy="796.384" rx="10.5678" ry="11.0928" class="st22"/>
		</g>
		<g id="shape425-372" v:mID="425" v:groupContext="shape" transform="translate(853.324,-526.273)">
			<title>工作表.425</title>
			<desc>Add</desc>
			<v:textBlock v:margins="rect(4,4,4,4)" v:tabSpace="42.5197"/>
			<v:textRect cx="19.8602" cy="797.042" width="39.73" height="20.8709"/>
			<rect x="0" y="786.606" width="39.7205" height="20.8709" class="st8"/>
			<text x="4.36" y="802.44" class="st20" v:langID="2052"><v:paragraph v:horizAlign="1"/><v:tabList/>Add</text>		</g>
		<g id="shape426-375" v:mID="426" v:groupContext="shape" transform="translate(892.81,-536.469) rotate(-0.209936)">
			<title>工作表.426</title>
			<path d="M0 807.48 L13.03 807.48" class="st21"/>
		</g>
		<g id="shape427-378" v:mID="427" v:groupContext="shape" transform="translate(94.8448,280.968) rotate(-90.1905)">
			<title>工作表.427</title>
			<path d="M0 807.48 L13.7 807.48" class="st21"/>
		</g>
		<g id="shape428-381" v:mID="428" v:groupContext="shape" transform="translate(780.175,-643.119) rotate(-0.2)">
			<title>工作表.428</title>
			<desc>3×3-Dilated-Conv+Relu+BN</desc>
			<v:textBlock v:margins="rect(4,4,4,4)" v:tabSpace="42.5197"/>
			<v:textRect cx="112.664" cy="796.384" width="225.33" height="22.1856"/>
			<rect x="0" y="785.291" width="225.327" height="22.1856" class="st7"/>
			<text x="6.95" y="801.78" class="st20" v:langID="2052"><v:paragraph v:horizAlign="1"/><v:tabList/>3×3-Dilated-Conv+Relu+BN</text>		</g>
		<g id="shape429-384" v:mID="429" v:groupContext="shape" transform="translate(94.5471,180.947) rotate(-90)">
			<title>工作表.429</title>
			<path d="M9.45 807.48 L9.81 807.48 L17.01 807.48" class="st18"/>
		</g>
		<g id="shape430-389" v:mID="430" v:groupContext="shape" transform="translate(888.684,-603.215) rotate(-0.2)">
			<title>工作表.430</title>
			<ellipse cx="10.5678" cy="796.384" rx="10.5678" ry="11.0928" class="st22"/>
		</g>
		<g id="shape431-391" v:mID="431" v:groupContext="shape" transform="translate(853.324,-599.152)">
			<title>工作表.431</title>
			<desc>Add</desc>
			<v:textBlock v:margins="rect(4,4,4,4)" v:tabSpace="42.5197"/>
			<v:textRect cx="19.8602" cy="797.042" width="39.73" height="20.8709"/>
			<rect x="0" y="786.606" width="39.7205" height="20.8709" class="st8"/>
			<text x="4.36" y="802.44" class="st20" v:langID="2052"><v:paragraph v:horizAlign="1"/><v:tabList/>Add</text>		</g>
		<g id="shape432-394" v:mID="432" v:groupContext="shape" transform="translate(892.81,-614.768) rotate(-0.209936)">
			<title>工作表.432</title>
			<path d="M0 807.48 L13.03 807.48" class="st21"/>
		</g>
		<g id="shape433-397" v:mID="433" v:groupContext="shape" transform="translate(94.8448,202.67) rotate(-90.1905)">
			<title>工作表.433</title>
			<path d="M0 807.48 L13.7 807.48" class="st21"/>
		</g>
		<g id="shape434-400" v:mID="434" v:groupContext="shape" transform="translate(94.8427,218.986) rotate(-90)">
			<title>工作表.434</title>
			<path d="M9.45 807.48 L9.81 807.48 L14.77 807.48" class="st18"/>
		</g>
		<g id="shape435-405" v:mID="435" v:groupContext="shape" transform="translate(912.442,-614.346) rotate(-0.174739)">
			<title>工作表.435</title>
			<path d="M9.45 807.48 L9.81 807.48 L98.4 807.48" class="st18"/>
		</g>
		<g id="shape436-410" v:mID="436" v:groupContext="shape" transform="translate(774.688,-622.817)">
			<title>工作表.436</title>
			<desc>Dilation rate=2</desc>
			<v:textBlock v:margins="rect(4,4,4,4)" v:tabSpace="42.5197"/>
			<v:textRect cx="62.3723" cy="797.042" width="124.75" height="20.8709"/>
			<rect x="0" y="786.606" width="124.745" height="20.8709" class="st8"/>
			<text x="7.56" y="802.44" class="st20" v:langID="2052"><v:paragraph v:horizAlign="1"/><v:tabList/>Dilation rate=2</text>		</g>
		<g id="shape437-413" v:mID="437" v:groupContext="shape" transform="translate(774.709,-545.989)">
			<title>工作表.437</title>
			<desc>Dilation rate=3</desc>
			<v:textBlock v:margins="rect(4,4,4,4)" v:tabSpace="42.5197"/>
			<v:textRect cx="62.3723" cy="797.042" width="124.75" height="20.8709"/>
			<rect x="0" y="786.606" width="124.745" height="20.8709" class="st8"/>
			<text x="7.56" y="802.44" class="st20" v:langID="2052"><v:paragraph v:horizAlign="1"/><v:tabList/>Dilation rate=3</text>		</g>
	</g>
</svg>
